<?xml version="1.0" encoding="UTF-8" standalone="no"?>
<!DOCTYPE svg PUBLIC "-//W3C//DTD SVG 1.1//EN" "http://www.w3.org/Graphics/SVG/1.1/DTD/svg11.dtd">
<svg width="100%" height="100%" viewBox="0 0 500 500" version="1.1" xmlns="http://www.w3.org/2000/svg" xmlns:xlink="http://www.w3.org/1999/xlink" xml:space="preserve" xmlns:serif="http://www.serif.com/" style="fill-rule:evenodd;clip-rule:evenodd;stroke-linejoin:round;stroke-miterlimit:2;">
    <circle cx="250" cy="250" r="250" style="fill:rgb(84,148,255);"/>
    <g transform="matrix(0.824289,0,0,0.824289,43.9276,43.9276)">
        <path d="M2.058,282.194L-10.767,283.859C-12.195,272.773 -12.931,261.472 -12.931,250C-12.931,238.528 -12.195,227.227 -10.767,216.141L2.058,217.806C4.937,195.449 10.775,174.013 19.165,153.904L7.24,148.94C11.546,138.625 16.559,128.469 22.295,118.534C28.031,108.599 34.319,99.18 41.099,90.294L51.418,98.182C64.876,80.612 80.612,64.876 98.182,51.418L90.294,41.099C99.18,34.319 108.599,28.031 118.534,22.295C128.469,16.559 138.625,11.546 148.94,7.24L153.904,19.165C174.013,10.775 195.449,4.937 217.806,2.058L216.141,-10.767C227.227,-12.195 238.528,-12.931 250,-12.931C261.472,-12.931 272.773,-12.195 283.859,-10.767L282.194,2.058C304.551,4.937 325.987,10.775 346.096,19.165L351.06,7.24C361.375,11.546 371.531,16.559 381.466,22.295C391.401,28.031 400.82,34.319 409.706,41.099L401.818,51.418C419.388,64.876 435.124,80.612 448.582,98.182L458.901,90.294C465.681,99.18 471.969,108.599 477.705,118.534C483.441,128.469 488.454,138.625 492.76,148.94L480.835,153.904C489.225,174.013 495.063,195.449 497.942,217.806L510.767,216.141C512.195,227.227 512.931,238.528 512.931,250C512.931,261.472 512.195,272.773 510.767,283.859L497.942,282.194C495.063,304.551 489.225,325.987 480.835,346.096L492.76,351.06C488.454,361.375 483.441,371.531 477.705,381.466C471.969,391.401 465.681,400.82 458.901,409.706L448.582,401.818C435.124,419.388 419.388,435.124 401.818,448.582L409.706,458.901C400.82,465.681 391.401,471.969 381.466,477.705C371.531,483.441 361.375,488.454 351.06,492.76L346.096,480.835C325.987,489.225 304.551,495.063 282.194,497.942L283.859,510.767C272.773,512.195 261.472,512.931 250,512.931C238.528,512.931 227.227,512.195 216.141,510.767L217.806,497.942C195.449,495.063 174.013,489.225 153.904,480.835L148.94,492.76C138.625,488.454 128.469,483.441 118.534,477.705C108.599,471.969 99.18,465.681 90.294,458.901L98.182,448.582C80.612,435.124 64.876,419.388 51.418,401.818L41.099,409.706C34.319,400.82 28.031,391.401 22.295,381.466C16.559,371.531 11.546,361.375 7.24,351.06L19.165,346.096C10.775,325.987 4.937,304.551 2.058,282.194ZM179.548,-26.8L175.177,-43.976C199.113,-50.059 224.182,-53.292 250,-53.292C275.818,-53.292 300.887,-50.059 324.823,-43.976L320.452,-26.8C297.914,-32.528 274.31,-35.572 250,-35.572C225.69,-35.572 202.086,-32.528 179.548,-26.8ZM320.452,526.8L324.823,543.976C300.887,550.059 275.818,553.292 250,553.292C224.182,553.292 199.113,550.059 175.177,543.976L179.548,526.8C202.086,532.528 225.69,535.572 250,535.572C274.31,535.572 297.914,532.528 320.452,526.8ZM454.49,50.587L467.179,38.213C484.415,55.902 499.749,75.995 512.658,98.354C525.567,120.713 535.302,144.04 542.002,167.811L524.942,172.613C518.633,150.231 509.467,128.267 497.313,107.214C485.158,86.161 470.719,67.242 454.49,50.587ZM45.51,449.413L32.821,461.787C15.585,444.098 0.251,424.005 -12.658,401.646C-25.567,379.287 -35.302,355.96 -42.002,332.189L-24.942,327.387C-18.633,349.769 -9.467,371.733 2.687,392.786C14.842,413.839 29.281,432.758 45.51,449.413ZM524.942,327.387L542.002,332.189C535.302,355.96 525.567,379.287 512.658,401.646C499.749,424.005 484.415,444.098 467.179,461.787L454.49,449.413C470.719,432.758 485.158,413.839 497.313,392.786C509.467,371.733 518.633,349.769 524.942,327.387ZM-24.942,172.613L-42.002,167.811C-35.302,144.04 -25.567,120.713 -12.658,98.354C0.251,75.995 15.585,55.902 32.821,38.213L45.51,50.587C29.281,67.242 14.842,86.161 2.687,107.214C-9.467,128.267 -18.633,150.231 -24.942,172.613Z"/>
    </g>
    <g transform="matrix(0.608366,0,0,0.608366,250,250)">
        <g transform="matrix(1,0,0,1,-250,-250)">
            <path id="Bottomfur" d="M399.161,315.099L435.131,333.187L343.68,379.175L298.34,439.047L201.66,439.047L156.32,379.175L64.869,333.187L100.901,315.068L250.131,337.862L399.161,315.099ZM236.132,423.799C244.28,430.168 255.72,430.168 263.868,423.799L296.973,397.924C304.545,392.006 307.526,381.934 304.397,372.848C301.267,363.761 292.715,357.662 283.105,357.662L216.895,357.662C207.285,357.662 198.733,363.761 195.603,372.848C192.474,381.934 195.455,392.006 203.027,397.924L236.132,423.799Z" style="fill:white;"/>
            <g id="Topfur" transform="matrix(-0.857115,-1.04966e-16,1.04966e-16,-0.857115,469.657,594.996)">
                <path d="M156.962,538.57L75.254,591.584L85.011,403.961L40.281,392.66L99.419,335.192L82.249,326.558L256.122,300L430.23,326.594L413.131,335.192L472.269,392.66L427.539,403.961L437.295,591.584L355.587,538.57C356.519,535.877 357.025,532.985 357.025,529.975L357.025,492.737C357.025,478.226 345.262,466.463 330.752,466.463L181.798,466.463C167.288,466.463 155.525,478.226 155.525,492.737L155.525,529.975C155.525,532.985 156.031,535.877 156.962,538.57Z" style="fill:rgb(255,134,74);"/>
            </g>
            <g id="Outline" transform="matrix(5.03852e-16,-3.0422,9.69501,-1.57746e-15,-888.085,3025.67)">
                <path d="M897.243,95.07L898.118,94.787L901.482,93.958L905.355,93.444L909.52,93.263L913.764,93.434L917.711,93.952L921.031,94.762L923.565,95.815L925.092,97.01L964.827,96.362L969.242,96.482L973.312,96.965L976.818,97.773L979.543,98.87L981.207,100.159L981.686,101.516L980.984,102.863L979.108,104.123L968.572,109.218L974.531,109.218L977.753,109.321L980.774,109.615L983.5,110.079L985.867,110.692L987.819,111.434L989.299,112.29L990.236,113.238L990.562,114.249L990.562,120.529L990.236,121.54L989.299,122.488L987.819,123.343L985.867,124.086L983.5,124.698L980.774,125.163L977.753,125.457L974.531,125.559L968.572,125.559L979.108,130.654L980.984,131.914L981.686,133.262L981.207,134.619L979.543,135.908L976.818,137.004L973.312,137.813L969.242,138.296L964.827,138.416L925.092,137.768L923.565,138.963L921.031,140.016L917.711,140.826L913.764,141.343L909.52,141.515L905.355,141.334L901.482,140.819L898.118,139.99L897.243,139.708L896.832,139.894L893.457,140.766L889.457,141.321L885.045,141.515L880.633,141.321L876.633,140.766L873.258,139.894L870.723,138.744L857.28,130.356L840.57,126.385L837.889,125.579L835.893,124.614L834.647,123.532L834.217,122.375L834.217,112.403L834.647,111.245L835.893,110.163L837.889,109.199L840.57,108.392L857.28,104.422L870.723,96.033L873.258,94.884L876.633,94.011L880.633,93.457L885.045,93.263L889.457,93.457L893.457,94.011L896.832,94.884L897.243,95.07ZM955.641,124.279C955.683,124.179 955.704,124.077 955.704,123.973L955.704,122.851L974.531,122.851C978.619,122.851 981.933,121.811 981.933,120.529L981.933,114.249C981.933,112.966 978.619,111.926 974.531,111.926L955.704,111.926L955.704,110.804C955.704,110.701 955.683,110.598 955.641,110.498L971.87,102.649C973.384,101.917 973.462,100.98 972.071,100.224C970.679,99.468 968.054,99.02 965.275,99.065L918.486,99.829L916.791,97.724C916.134,96.908 914.121,96.267 911.53,96.05C908.939,95.832 906.175,96.071 904.306,96.674L895.364,99.562L891.658,97.25C890.401,96.465 887.843,95.97 885.045,95.97C882.247,95.97 879.689,96.465 878.432,97.25L864.088,106.2L845.779,110.551C843.931,110.99 842.845,111.675 842.845,112.403L842.845,122.375C842.845,123.102 843.931,123.788 845.779,124.227L864.088,128.577L878.432,137.528C879.689,138.312 882.247,138.807 885.045,138.807C887.843,138.807 890.401,138.312 891.658,137.528L895.364,135.216L904.306,138.103C906.175,138.707 908.939,138.946 911.53,138.728C914.121,138.51 916.134,137.869 916.791,137.053L918.486,134.949L965.275,135.712C968.054,135.757 970.679,135.31 972.071,134.554C973.462,133.798 973.384,132.861 971.87,132.128L955.641,124.279Z" style="fill:white;"/>
            </g>
            <path id="Hat" d="M313.835,140.747L313.835,172.664L186.165,172.664L186.165,140.747L219.559,140.747L219.559,60.953L280.441,60.953L280.441,140.747L313.835,140.747Z" style="fill:rgb(56,56,56);"/>
            <path id="Nose" d="M250,406.057L216.895,380.182L283.105,380.182L250,406.057Z" style="fill:rgb(56,56,56);"/>
            <g id="Line" transform="matrix(5.03852e-16,-3.0422,9.69501,-1.57746e-15,-888.085,3025.67)">
                <path d="M955.641,124.279L971.87,132.128C973.384,132.861 973.462,133.798 972.071,134.554C970.679,135.31 968.054,135.757 965.275,135.712L918.486,134.949L916.791,137.053C916.134,137.869 914.121,138.51 911.53,138.728C908.939,138.946 906.175,138.707 904.306,138.103L895.364,135.216L891.658,137.528C890.401,138.312 887.843,138.807 885.045,138.807C882.247,138.807 879.689,138.312 878.432,137.528L864.088,128.577L845.779,124.227C843.931,123.788 842.845,123.102 842.845,122.375L842.845,112.403C842.845,111.675 843.931,110.99 845.779,110.551L864.088,106.2L878.432,97.25C879.689,96.465 882.247,95.97 885.045,95.97C887.843,95.97 890.401,96.465 891.658,97.25L895.364,99.562L904.306,96.674C906.175,96.071 908.939,95.832 911.53,96.05C914.121,96.267 916.134,96.908 916.791,97.724L918.486,99.829L965.275,99.065C968.054,99.02 970.679,99.468 972.071,100.224C973.462,100.98 973.384,101.917 971.87,102.649L955.641,110.498C955.683,110.598 955.704,110.701 955.704,110.804L955.704,111.926L974.531,111.926C978.619,111.926 981.933,112.966 981.933,114.249L981.933,120.529C981.933,121.811 978.619,122.851 974.531,122.851L955.704,122.851L955.704,123.973C955.704,124.077 955.683,124.179 955.641,124.279ZM950.723,108.609L965.66,101.385L912.799,102.248L909.614,98.293L893.423,103.521L885.045,98.293L869.928,107.726L850.248,112.403L850.248,122.375L869.928,127.051L885.045,136.484L893.423,131.256L909.614,136.484L912.799,132.53L965.66,133.392L950.723,126.169C949.965,126.251 949.15,126.296 948.302,126.296L937.81,126.296C933.722,126.296 930.408,125.256 930.408,123.973L930.408,110.804C930.408,109.522 933.722,108.482 937.81,108.482L948.302,108.482C949.15,108.482 949.965,108.526 950.723,108.609ZM948.302,123.973L948.302,120.529L974.531,120.529L974.531,114.249L948.302,114.249L948.302,110.804L937.81,110.804L937.81,123.973L948.302,123.973ZM855.26,115.958L863.765,112.544C865.711,111.763 869.021,111.455 872.008,111.778C874.995,112.101 877,112.983 877,113.974L877,120.803C877,121.795 874.995,122.677 872.008,123C869.021,123.322 865.711,123.015 863.765,122.234L855.26,118.819C853.166,117.979 853.166,116.799 855.26,115.958ZM861.092,117.389L869.597,120.803L869.597,113.974L861.092,117.389Z"/>
            </g>
        </g>
    </g>
</svg>
